<svg width="20" height="20" viewBox="0 0 20 20" fill="none" xmlns="http://www.w3.org/2000/svg">
<path d="M15 1.66675V3.33341M5.00005 1.66675V3.33341" stroke="#868C98" stroke-width="1.25" stroke-linecap="round" stroke-linejoin="round"/>
<path d="M2.50005 6.66675H17.5" stroke="#868C98" stroke-width="1.25" stroke-linecap="round" stroke-linejoin="round"/>
<path d="M2.08337 10.2027C2.08337 6.57161 2.08337 4.75607 3.12681 3.62803C4.17024 2.5 5.84962 2.5 9.20837 2.5H10.7917C14.1505 2.5 15.8298 2.5 16.8733 3.62803C17.9167 4.75607 17.9167 6.57161 17.9167 10.2027V10.6306C17.9167 14.2617 17.9167 16.0773 16.8733 17.2053C15.8298 18.3333 14.1505 18.3333 10.7917 18.3333H9.20837C5.84962 18.3333 4.17024 18.3333 3.12681 17.2053C2.08337 16.0773 2.08337 14.2617 2.08337 10.6306V10.2027Z" stroke="#868C98" stroke-width="1.25" stroke-linecap="round" stroke-linejoin="round"/>
<path d="M10.5039 10.0047L11.0172 11.0398C11.0872 11.1838 11.2738 11.322 11.4313 11.3485L12.3616 11.5043C12.9566 11.6043 13.0966 12.0395 12.6679 12.4688L11.9446 13.198C11.8221 13.3215 11.755 13.5597 11.793 13.7303L12 14.633C12.1633 15.3475 11.7871 15.6239 11.1601 15.2505L10.2881 14.73C10.1306 14.6359 9.87109 14.6359 9.71069 14.73L8.8387 15.2505C8.2146 15.6239 7.83548 15.3446 7.99879 14.633L8.20586 13.7303C8.24377 13.5597 8.17669 13.3215 8.05421 13.198L7.33095 12.4688C6.90517 12.0395 7.04223 11.6043 7.63717 11.5043L8.56748 11.3485C8.72205 11.322 8.90869 11.1838 8.97869 11.0398L9.49196 10.0047C9.77193 9.44309 10.2269 9.44309 10.5039 10.0047Z" stroke="#868C98" stroke-width="1.25" stroke-linecap="round" stroke-linejoin="round"/>
</svg>
