<svg width="20" height="20" viewBox="0 0 20 20" fill="none" xmlns="http://www.w3.org/2000/svg">
<path d="M7.50065 14.9999C7.50065 15.9204 6.75445 16.6666 5.83398 16.6666C4.9135 16.6666 4.16731 15.9204 4.16731 14.9999C4.16731 14.0794 4.9135 13.3333 5.83398 13.3333C6.75445 13.3333 7.50065 14.0794 7.50065 14.9999Z" stroke="#375DFB" stroke-width="1.25"/>
<path d="M15.834 14.9999C15.834 15.9204 15.0878 16.6666 14.1673 16.6666C13.2468 16.6666 12.5006 15.9204 12.5006 14.9999C12.5006 14.0794 13.2468 13.3333 14.1673 13.3333C15.0878 13.3333 15.834 14.0794 15.834 14.9999Z" stroke="#375DFB" stroke-width="1.25"/>
<path d="M1.66731 9.16675H15.0006" stroke="#375DFB" stroke-width="1.25" stroke-linecap="round"/>
<path d="M15.834 14.375C15.4888 14.375 15.209 14.6548 15.209 15C15.209 15.3452 15.4888 15.625 15.834 15.625V14.375ZM1.66731 4.375C1.32213 4.375 1.04231 4.65482 1.04231 5C1.04231 5.34518 1.32213 5.625 1.66731 5.625V4.375ZM11.9369 5.28255L11.6482 5.83691V5.83692L11.9369 5.28255ZM18.1958 11.1143L17.6122 11.3381V11.3381L18.1958 11.1143ZM18.0899 14.7559L18.5318 15.1979L18.5318 15.1979L18.0899 14.7559ZM14.849 8.87819L14.4101 9.32323L14.4101 9.32323L14.849 8.87819ZM3.77592 5.44194C4.02 5.19786 4.02 4.80214 3.77592 4.55806C3.53184 4.31398 3.13612 4.31398 2.89204 4.55806L3.77592 5.44194ZM1.79177 14.0897L2.32343 13.7612H2.32343L1.79177 14.0897ZM4.02372 15.6083C4.35966 15.6876 4.69629 15.4795 4.77559 15.1436C4.8549 14.8077 4.64685 14.471 4.31091 14.3917L4.02372 15.6083ZM7.50065 14.375C7.15547 14.375 6.87565 14.6548 6.87565 15C6.87565 15.3452 7.15547 15.625 7.50065 15.625L7.50065 14.375ZM12.5006 15.625C12.8458 15.625 13.1256 15.3452 13.1256 15C13.1256 14.6548 12.8458 14.375 12.5006 14.375V15.625ZM15.834 15.625H16.6673V14.375H15.834V15.625ZM18.959 13.3333V12.733H17.709V13.3333H18.959ZM9.4807 4.375H1.66731V5.625H9.4807V4.375ZM9.4807 5.625C10.1297 5.625 10.575 5.6256 10.9268 5.65773C11.266 5.68871 11.4738 5.74608 11.6482 5.83691L12.2255 4.72819C11.8573 4.53648 11.4747 4.45257 11.0405 4.41291C10.6188 4.3744 10.1074 4.375 9.4807 4.375V5.625ZM18.959 12.733C18.959 11.9456 18.969 11.3849 18.7793 10.8904L17.6122 11.3381C17.699 11.5642 17.709 11.8425 17.709 12.733H18.959ZM16.6673 15.625C17.0425 15.625 17.3867 15.6263 17.665 15.5889C17.9612 15.5491 18.2743 15.4554 18.5318 15.1979L17.648 14.314C17.6476 14.3144 17.6476 14.3143 17.6479 14.3141C17.6481 14.3139 17.6483 14.3137 17.6483 14.3138C17.6482 14.3138 17.6475 14.3143 17.6459 14.3151C17.6443 14.316 17.6415 14.3173 17.6373 14.319C17.6192 14.3265 17.5789 14.3392 17.4984 14.3501C17.3228 14.3737 17.0778 14.375 16.6673 14.375V15.625ZM17.709 13.3333C17.709 13.7438 17.7077 13.9888 17.684 14.1644C17.6732 14.2449 17.6605 14.2852 17.653 14.3034C17.6513 14.3076 17.6499 14.3103 17.6491 14.3119C17.6483 14.3135 17.6478 14.3142 17.6478 14.3143C17.6477 14.3144 17.6479 14.3142 17.6481 14.3139C17.6483 14.3136 17.6483 14.3136 17.648 14.314L18.5318 15.1979C18.7894 14.9403 18.8831 14.6272 18.9229 14.331C18.9603 14.0528 18.959 13.7085 18.959 13.3333H17.709ZM15.2878 8.43314C14.8255 7.97732 14.4967 7.35829 14.0375 6.62351C13.6099 5.93921 13.072 5.16892 12.2255 4.72819L11.6482 5.83692C12.1693 6.10823 12.5565 6.61222 12.9775 7.28595C13.367 7.90921 13.8105 8.73198 14.4101 9.32323L15.2878 8.43314ZM18.7793 10.8904C18.4006 9.90307 17.5862 9.50173 16.913 9.23404C16.5438 9.08719 16.2689 8.99833 15.9636 8.86175C15.681 8.7353 15.4589 8.60188 15.2878 8.43314L14.4101 9.32323C14.7307 9.63931 15.1031 9.84612 15.4531 10.0027C15.7805 10.1492 16.1763 10.2863 16.4511 10.3956C17.0661 10.6401 17.4335 10.872 17.6122 11.3381L18.7793 10.8904ZM2.89204 4.55806C2.3729 5.0772 1.91831 6.0229 1.60294 6.86388C1.43922 7.30047 1.30166 7.73983 1.2042 8.12967C1.1099 8.50689 1.04231 8.87961 1.04231 9.16667H2.29231C2.29231 9.03706 2.3289 8.78478 2.41688 8.43283C2.50171 8.0935 2.62457 7.69953 2.77335 7.30279C3.08298 6.4771 3.46173 5.75614 3.77592 5.44194L2.89204 4.55806ZM1.04231 9.16667V13.1366H2.29231V9.16667H1.04231ZM1.04231 13.1366C1.04231 13.3744 1.04154 13.5999 1.06118 13.7899C1.08232 13.9943 1.13087 14.2092 1.26011 14.4183L2.32343 13.7612C2.32328 13.7609 2.32318 13.7608 2.32287 13.7601C2.32252 13.7593 2.32129 13.7564 2.31953 13.7504C2.31575 13.7375 2.30971 13.7111 2.30456 13.6613C2.29308 13.5504 2.29231 13.4 2.29231 13.1366H1.04231ZM4.31091 14.3917C4.11571 14.3456 3.88137 14.3067 3.67291 14.2696C3.45271 14.2303 3.2394 14.1895 3.03972 14.136C2.60546 14.0197 2.39891 13.8833 2.32343 13.7612L1.26011 14.4183C1.60689 14.9794 2.24165 15.2163 2.71637 15.3435C2.97117 15.4117 3.22927 15.4602 3.45346 15.5001C3.6894 15.5422 3.87245 15.5726 4.02372 15.6083L4.31091 14.3917ZM7.50065 15.625L12.5006 15.625V14.375H7.50065L7.50065 15.625Z" fill="#375DFB"/>
<path d="M7.50064 9.16667V5" stroke="#375DFB" stroke-width="1.25" stroke-linecap="round"/>
</svg>
