<svg width="20" height="20" viewBox="0 0 20 20" fill="none" xmlns="http://www.w3.org/2000/svg">
<path d="M4.16731 6.38897C4.16731 5.87232 4.16731 5.61399 4.2241 5.40205C4.37821 4.8269 4.82746 4.37765 5.40261 4.22354C5.61456 4.16675 5.87288 4.16675 6.38954 4.16675H13.6118C14.1284 4.16675 14.3867 4.16675 14.5987 4.22354C15.1738 4.37765 15.6231 4.8269 15.7772 5.40205C15.834 5.61399 15.834 5.87232 15.834 6.38897C15.834 7.42227 15.834 7.93892 15.7204 8.36281C15.4122 9.51312 14.5137 10.4116 13.3634 10.7198C12.9395 10.8334 12.4228 10.8334 11.3895 10.8334H8.61176C7.57846 10.8334 7.0618 10.8334 6.63792 10.7198C5.48761 10.4116 4.58912 9.51312 4.28089 8.36281C4.16731 7.93892 4.16731 7.42227 4.16731 6.38897Z" stroke="#868C98" stroke-width="1.25"/>
<path d="M15.0006 9.16675C15.3103 9.65334 15.4651 9.89663 15.5748 10.1582C15.6725 10.3913 15.7434 10.6347 15.7861 10.8838C15.834 11.1633 15.834 11.4517 15.834 12.0285V13.3334C15.834 15.6904 15.834 16.8689 15.1017 17.6012C14.3695 18.3334 13.191 18.3334 10.834 18.3334H9.16731C6.81029 18.3334 5.63178 18.3334 4.89955 17.6012C4.16731 16.8689 4.16731 15.6904 4.16731 13.3334V12.0285C4.16731 11.4517 4.16731 11.1633 4.21523 10.8838C4.25793 10.6347 4.32881 10.3913 4.42652 10.1582C4.53617 9.89663 4.691 9.65334 5.00065 9.16675" stroke="#868C98" stroke-width="1.25"/>
<path d="M4.16731 16.6667C3.60358 16.6667 3.32171 16.6667 3.08581 16.6016C2.5697 16.4593 2.15121 16.0968 1.95195 15.6194C1.86087 15.4012 1.83283 15.1327 1.77673 14.5958L1.72307 14.0822C1.65893 13.4683 1.62687 13.1613 1.75806 12.9341C2.05127 12.4263 2.71002 12.5043 3.21485 12.5043H4.16731" stroke="#868C98" stroke-width="1.25"/>
<path d="M15.834 16.6667C16.3977 16.6667 16.6796 16.6667 16.9155 16.6016C17.4316 16.4591 17.8501 16.0962 18.0493 15.6183C18.1404 15.3999 18.1685 15.1312 18.2246 14.5937L18.2782 14.0795C18.3302 13.5813 18.4614 12.9688 17.9764 12.6477C17.7533 12.5 17.431 12.5 16.7865 12.5H15.834" stroke="#868C98" stroke-width="1.25"/>
<path d="M7.50064 12.0835L7.50064 11.2502" stroke="#868C98" stroke-width="1.25" stroke-linecap="round" stroke-linejoin="round"/>
<path d="M12.5006 12.0835L12.5006 11.2502" stroke="#868C98" stroke-width="1.25" stroke-linecap="round" stroke-linejoin="round"/>
<path d="M12.5006 4.16675C12.5006 2.78604 11.3814 1.66675 10.0006 1.66675C8.61993 1.66675 7.50064 2.78604 7.50064 4.16675" stroke="#868C98" stroke-width="1.25"/>
</svg>
