<svg width="48" height="48" viewBox="0 0 48 48" fill="none" xmlns="http://www.w3.org/2000/svg">
<rect width="48" height="48" rx="24" fill="#F6F8FA"/>
<path d="M16.2283 19.2727H17.5408V25.4602C17.5408 26.0199 17.43 26.4986 17.2084 26.8963C16.9896 27.294 16.6814 27.598 16.2837 27.8082C15.8859 28.0156 15.42 28.1193 14.8859 28.1193C14.3945 28.1193 13.9527 28.0298 13.5607 27.8509C13.1715 27.6719 12.8632 27.4119 12.6359 27.071C12.4115 26.7273 12.2993 26.3097 12.2993 25.8182H13.6075C13.6075 26.0597 13.6629 26.2685 13.7737 26.4446C13.8874 26.6207 14.0422 26.7585 14.2382 26.858C14.4371 26.9545 14.6644 27.0028 14.92 27.0028C15.1984 27.0028 15.4342 26.9446 15.6274 26.8281C15.8234 26.7088 15.9726 26.5341 16.0749 26.304C16.1771 26.0739 16.2283 25.7926 16.2283 25.4602V19.2727ZM19.9373 28V19.2727H23.0481C23.7271 19.2727 24.2896 19.3963 24.7356 19.6435C25.1816 19.8906 25.5154 20.2287 25.737 20.6577C25.9586 21.0838 26.0694 21.5639 26.0694 22.098C26.0694 22.6349 25.9572 23.1179 25.7328 23.5469C25.5112 23.973 25.176 24.3111 24.7271 24.5611C24.2811 24.8082 23.72 24.9318 23.0439 24.9318H20.9047V23.8153H22.9245C23.3535 23.8153 23.7015 23.7415 23.9686 23.5938C24.2356 23.4432 24.4316 23.2386 24.5566 22.9801C24.6816 22.7216 24.7441 22.4276 24.7441 22.098C24.7441 21.7685 24.6816 21.4759 24.5566 21.2202C24.4316 20.9645 24.2342 20.7642 23.9643 20.6193C23.6973 20.4744 23.345 20.402 22.9075 20.402H21.2541V28H19.9373ZM33.9994 22.0298C33.917 21.7713 33.8062 21.5398 33.667 21.3352C33.5306 21.1278 33.3673 20.9517 33.1769 20.8068C32.9866 20.6591 32.7692 20.5469 32.5249 20.4702C32.2834 20.3935 32.0178 20.3551 31.728 20.3551C31.2366 20.3551 30.7934 20.4815 30.3985 20.7344C30.0036 20.9872 29.6911 21.358 29.461 21.8466C29.2337 22.3324 29.1201 22.9276 29.1201 23.6321C29.1201 24.3395 29.2351 24.9375 29.4653 25.4261C29.6954 25.9148 30.0107 26.2855 30.4113 26.5384C30.8119 26.7912 31.2678 26.9176 31.7792 26.9176C32.2536 26.9176 32.667 26.821 33.0192 26.6278C33.3744 26.4347 33.6485 26.1619 33.8417 25.8097C34.0377 25.4545 34.1357 25.0369 34.1357 24.5568L34.4766 24.6207H31.9795V23.5341H35.4099V24.527C35.4099 25.2599 35.2536 25.8963 34.9411 26.4361C34.6315 26.973 34.2025 27.3878 33.6542 27.6804C33.1087 27.973 32.4837 28.1193 31.7792 28.1193C30.9894 28.1193 30.2962 27.9375 29.6996 27.5739C29.1059 27.2102 28.6428 26.6946 28.3104 26.027C27.978 25.3565 27.8119 24.5611 27.8119 23.6406C27.8119 22.9446 27.9084 22.3196 28.1016 21.7656C28.2948 21.2116 28.5661 20.7415 28.9155 20.3551C29.2678 19.9659 29.6812 19.669 30.1556 19.4645C30.6329 19.2571 31.1542 19.1534 31.7195 19.1534C32.1911 19.1534 32.63 19.223 33.0363 19.3622C33.4454 19.5014 33.809 19.6989 34.1272 19.9545C34.4482 20.2102 34.7138 20.5142 34.9241 20.8665C35.1343 21.2159 35.2763 21.6037 35.3502 22.0298H33.9994Z" fill="#868C98"/>
</svg>
