<svg width="48" height="48" viewBox="0 0 48 48" fill="none" xmlns="http://www.w3.org/2000/svg">
<rect width="48" height="48" rx="24" fill="#F6F8FA"/>
<path d="M12.7952 28V19.2727H15.906C16.585 19.2727 17.1475 19.3963 17.5935 19.6435C18.0395 19.8906 18.3733 20.2287 18.5949 20.6577C18.8165 21.0838 18.9273 21.5639 18.9273 22.098C18.9273 22.6349 18.8151 23.1179 18.5907 23.5469C18.3691 23.973 18.0338 24.3111 17.585 24.5611C17.139 24.8082 16.5779 24.9318 15.9017 24.9318H13.7625V23.8153H15.7824C16.2114 23.8153 16.5594 23.7415 16.8265 23.5938C17.0935 23.4432 17.2895 23.2386 17.4145 22.9801C17.5395 22.7216 17.602 22.4276 17.602 22.098C17.602 21.7685 17.5395 21.4759 17.4145 21.2202C17.2895 20.9645 17.0921 20.7642 16.8222 20.6193C16.5552 20.4744 16.2029 20.402 15.7654 20.402H14.112V28H12.7952ZM23.7763 28H20.951V19.2727H23.8658C24.7209 19.2727 25.4553 19.4474 26.0689 19.7969C26.6825 20.1435 27.1527 20.642 27.4794 21.2926C27.8089 21.9403 27.9737 22.7173 27.9737 23.6236C27.9737 24.5327 27.8075 25.3139 27.4751 25.9673C27.1456 26.6207 26.6683 27.1236 26.0433 27.4759C25.4183 27.8253 24.6626 28 23.7763 28ZM22.2678 26.8494H23.7038C24.3686 26.8494 24.9212 26.7244 25.3615 26.4744C25.8018 26.2216 26.1314 25.8565 26.3501 25.3793C26.5689 24.8991 26.6783 24.3139 26.6783 23.6236C26.6783 22.9389 26.5689 22.358 26.3501 21.8807C26.1342 21.4034 25.8118 21.0412 25.3828 20.794C24.9538 20.5469 24.4212 20.4233 23.7848 20.4233H22.2678V26.8494ZM30.0912 28V19.2727H35.5031V20.4062H31.4079V23.0653H35.1153V24.1946H31.4079V28H30.0912Z" fill="#868C98"/>
</svg>
