<svg width="48" height="48" viewBox="0 0 48 48" fill="none" xmlns="http://www.w3.org/2000/svg">
<rect width="48" height="48" rx="24" fill="#F6F8FA"/>
<path d="M11.3304 19.2727H12.9284L15.7068 26.0568H15.8091L18.5875 19.2727H20.1855V28H18.9326V21.6847H18.8517L16.2778 27.9872H15.238L12.6642 21.6804H12.5832V28H11.3304V19.2727ZM22.5799 28V19.2727H25.6907C26.3697 19.2727 26.9322 19.3963 27.3782 19.6435C27.8242 19.8906 28.158 20.2287 28.3796 20.6577C28.6012 21.0838 28.712 21.5639 28.712 22.098C28.712 22.6349 28.5998 23.1179 28.3754 23.5469C28.1538 23.973 27.8185 24.3111 27.3697 24.5611C26.9237 24.8082 26.3626 24.9318 25.6864 24.9318H23.5472V23.8153H25.5671C25.9961 23.8153 26.3441 23.7415 26.6112 23.5938C26.8782 23.4432 27.0742 23.2386 27.1992 22.9801C27.3242 22.7216 27.3867 22.4276 27.3867 22.098C27.3867 21.7685 27.3242 21.4759 27.1992 21.2202C27.0742 20.9645 26.8768 20.7642 26.6069 20.6193C26.3398 20.4744 25.9876 20.402 25.5501 20.402H23.8967V28H22.5799ZM30.4331 26.2955V25.2301L34.2044 19.2727H35.0439V20.8409H34.5112L31.8138 25.1108V25.179H36.9828V26.2955H30.4331ZM34.5709 28V25.9716L34.5794 25.4858V19.2727H35.828V28H34.5709Z" fill="#868C98"/>
</svg>
