<svg width="20" height="20" viewBox="0 0 20 20" fill="none" xmlns="http://www.w3.org/2000/svg">
<g clip-path="url(#clip0_119_1377)">
<path d="M15.8333 8.33333C14.1625 7.80679 12.1568 7.5 9.99999 7.5C7.84315 7.5 5.83748 7.80679 4.16666 8.33333V11.25C5.83748 10.7235 7.84315 10.4167 9.99999 10.4167C12.1568 10.4167 14.1625 10.7235 15.8333 11.25V8.33333Z" stroke="#525866" stroke-width="1.5" stroke-linejoin="round"/>
<path d="M15.8333 10.8333V12.5192C15.8333 14.2951 14.9733 15.9408 13.5676 16.8544L12.401 17.6128C10.9231 18.5734 9.07686 18.5734 7.59901 17.6128L6.43234 16.8544C5.02672 15.9408 4.16666 14.2951 4.16666 12.5192V10.8333" stroke="#525866" stroke-width="1.5" stroke-linecap="round"/>
<path d="M15.8333 8.33329L16.7714 7.83921C17.8239 7.14891 18.3502 6.80377 18.3329 6.31063C18.3156 5.8175 17.7666 5.51749 16.6687 4.91747L12.7294 2.76459C11.3901 2.03262 10.7204 1.66663 9.99999 1.66663C9.2796 1.66663 8.60992 2.03262 7.27056 2.7646L3.33126 4.91747C2.23335 5.51749 1.6844 5.8175 1.66707 6.31063C1.64974 6.80377 2.17603 7.14891 3.2286 7.83921L4.16666 8.33329" stroke="#525866" stroke-width="1.5" stroke-linecap="round"/>
</g>
<defs>
<clipPath id="clip0_119_1377">
<rect width="20" height="20" fill="white"/>
</clipPath>
</defs>
</svg>
