<svg width="20" height="20" viewBox="0 0 20 20" fill="none" xmlns="http://www.w3.org/2000/svg">
<path d="M17.9162 13.3334L18.3237 13.8073C18.5508 13.6121 18.6075 13.2833 18.4589 13.0233L17.9162 13.3334ZM2.08292 13.3334L1.54026 13.0233C1.39171 13.2833 1.4484 13.6121 1.67542 13.8073L2.08292 13.3334ZM16.2496 10.4167H15.6246V10.5827L15.7069 10.7268L16.2496 10.4167ZM3.74958 10.4167L4.29223 10.7268L4.37458 10.5827V10.4167H3.74958ZM9.99958 16.4584C13.3757 16.4584 16.4235 15.4413 18.3237 13.8073L17.5088 12.8595C15.8899 14.2516 13.1575 15.2084 9.99958 15.2084V16.4584ZM1.67542 13.8073C3.57562 15.4413 6.62343 16.4584 9.99958 16.4584V15.2084C6.84169 15.2084 4.10929 14.2516 2.49041 12.8595L1.67542 13.8073ZM18.4589 13.0233L16.7922 10.1067L15.7069 10.7268L17.3736 13.6435L18.4589 13.0233ZM16.8746 10.4167V7.91675H15.6246V10.4167H16.8746ZM3.12458 7.91675V10.4167H4.37458V7.91675H3.12458ZM3.20693 10.1067L1.54026 13.0233L2.62557 13.6435L4.29223 10.7268L3.20693 10.1067ZM9.99958 1.04175C6.20263 1.04175 3.12458 4.11979 3.12458 7.91675H4.37458C4.37458 4.81015 6.89298 2.29175 9.99958 2.29175V1.04175ZM16.8746 7.91675C16.8746 4.11979 13.7965 1.04175 9.99958 1.04175V2.29175C13.1062 2.29175 15.6246 4.81015 15.6246 7.91675H16.8746Z" fill="#868C98"/>
<path d="M7.5 17.5C8.16345 18.0182 9.03956 18.3333 10 18.3333C10.9604 18.3333 11.8366 18.0182 12.5 17.5" stroke="#868C98" stroke-width="1.25" stroke-linejoin="round"/>
</svg>
