<svg width="318" height="56" viewBox="0 0 318 56" fill="none" xmlns="http://www.w3.org/2000/svg">
<rect x="13.5" width="58" height="56" rx="10" fill="white"/>
<path d="M56.5 24.3075L46.648 23.1244L42.4947 14L38.3415 23.1244L28.5 24.3075L35.776 31.1402L33.8519 41L42.4947 36.0861L51.1481 41L49.224 31.1402L56.5 24.3075Z" fill="#F2AE40"/>
<rect x="71.5" width="58" height="56" rx="10" fill="white"/>
<path d="M114.5 24.3075L104.648 23.1244L100.495 14L96.3415 23.1244L86.5 24.3075L93.776 31.1402L91.8519 41L100.495 36.0861L109.148 41L107.224 31.1402L114.5 24.3075Z" fill="#F2AE40"/>
<rect x="129.5" width="59" height="56" rx="10" fill="white"/>
<path d="M173 24.3075L163.148 23.1244L158.995 14L154.842 23.1244L145 24.3075L152.276 31.1402L150.352 41L158.995 36.0861L167.648 41L165.724 31.1402L173 24.3075Z" fill="#F2AE40"/>
<rect x="188.5" width="58" height="56" rx="10" fill="white"/>
<path d="M231.5 24.3075L221.648 23.1244L217.495 14L213.342 23.1244L203.5 24.3075L210.776 31.1402L208.852 41L217.495 36.0861L226.148 41L224.224 31.1402L231.5 24.3075Z" fill="#F2AE40"/>
<rect x="246.5" width="58" height="56" rx="10" fill="white"/>
<path d="M289.5 24.3075L279.648 23.1244L275.495 14L271.342 23.1244L261.5 24.3075L268.776 31.1402L266.852 41L275.495 36.0861L284.148 41L282.224 31.1402L289.5 24.3075Z" fill="#F2AE40"/>
</svg>
