<svg width="32" height="32" viewBox="0 0 32 32" fill="none" xmlns="http://www.w3.org/2000/svg">
<path d="M16.0001 22V19.3333" stroke="white" stroke-width="2" stroke-linecap="round"/>
<path d="M5.69051 25.1263C5.99035 27.3533 7.83494 29.098 10.0796 29.2012C11.9685 29.288 13.8872 29.3333 16.0001 29.3333C18.113 29.3333 20.0317 29.288 21.9206 29.2012C24.1653 29.098 26.0098 27.3533 26.3097 25.1263C26.5054 23.6729 26.6668 22.1835 26.6668 20.6666C26.6668 19.1498 26.5054 17.6604 26.3097 16.207C26.0098 13.98 24.1653 12.2353 21.9206 12.1321C20.0317 12.0453 18.113 12 16.0001 12C13.8872 12 11.9685 12.0453 10.0796 12.1321C7.83494 12.2353 5.99035 13.98 5.69051 16.207C5.49483 17.6604 5.33343 19.1498 5.33343 20.6666C5.33343 22.1835 5.49483 23.6729 5.69051 25.1263Z" stroke="white" stroke-width="2"/>
<path d="M10.0001 12V8.66663C10.0001 5.35292 12.6864 2.66663 16.0001 2.66663C19.3138 2.66663 22.0001 5.35292 22.0001 8.66663V12" stroke="white" stroke-width="2" stroke-linecap="round" stroke-linejoin="round"/>
</svg>
